G04 #@! TF.GenerationSoftware,KiCad,Pcbnew,6.0.1-79c1e3a40b~116~ubuntu21.04.1*
G04 #@! TF.CreationDate,2022-03-24T05:35:56+11:00*
G04 #@! TF.ProjectId,833iot,38333369-6f74-42e6-9b69-6361645f7063,rev?*
G04 #@! TF.SameCoordinates,Original*
G04 #@! TF.FileFunction,Copper,L1,Top*
G04 #@! TF.FilePolarity,Positive*
%FSLAX46Y46*%
G04 Gerber Fmt 4.6, Leading zero omitted, Abs format (unit mm)*
G04 Created by KiCad (PCBNEW 6.0.1-79c1e3a40b~116~ubuntu21.04.1) date 2022-03-24 05:35:56*
%MOMM*%
%LPD*%
G01*
G04 APERTURE LIST*
G04 Aperture macros list*
%AMRoundRect*
0 Rectangle with rounded corners*
0 $1 Rounding radius*
0 $2 $3 $4 $5 $6 $7 $8 $9 X,Y pos of 4 corners*
0 Add a 4 corners polygon primitive as box body*
4,1,4,$2,$3,$4,$5,$6,$7,$8,$9,$2,$3,0*
0 Add four circle primitives for the rounded corners*
1,1,$1+$1,$2,$3*
1,1,$1+$1,$4,$5*
1,1,$1+$1,$6,$7*
1,1,$1+$1,$8,$9*
0 Add four rect primitives between the rounded corners*
20,1,$1+$1,$2,$3,$4,$5,0*
20,1,$1+$1,$4,$5,$6,$7,0*
20,1,$1+$1,$6,$7,$8,$9,0*
20,1,$1+$1,$8,$9,$2,$3,0*%
G04 Aperture macros list end*
G04 #@! TA.AperFunction,ComponentPad*
%ADD10C,1.270000*%
G04 #@! TD*
G04 #@! TA.AperFunction,ComponentPad*
%ADD11R,1.270000X1.270000*%
G04 #@! TD*
G04 #@! TA.AperFunction,ComponentPad*
%ADD12O,1.270000X1.270000*%
G04 #@! TD*
G04 #@! TA.AperFunction,SMDPad,CuDef*
%ADD13R,1.000000X1.800000*%
G04 #@! TD*
G04 #@! TA.AperFunction,SMDPad,CuDef*
%ADD14RoundRect,0.218750X0.256250X-0.218750X0.256250X0.218750X-0.256250X0.218750X-0.256250X-0.218750X0*%
G04 #@! TD*
G04 #@! TA.AperFunction,SMDPad,CuDef*
%ADD15RoundRect,0.200000X0.275000X-0.200000X0.275000X0.200000X-0.275000X0.200000X-0.275000X-0.200000X0*%
G04 #@! TD*
G04 #@! TA.AperFunction,SMDPad,CuDef*
%ADD16R,1.000000X0.650000*%
G04 #@! TD*
G04 #@! TA.AperFunction,SMDPad,CuDef*
%ADD17R,0.650000X1.000000*%
G04 #@! TD*
G04 #@! TA.AperFunction,ComponentPad*
%ADD18R,0.650000X1.000000*%
G04 #@! TD*
G04 #@! TA.AperFunction,ComponentPad*
%ADD19R,1.000000X0.650000*%
G04 #@! TD*
G04 #@! TA.AperFunction,SMDPad,CuDef*
%ADD20R,1.700000X1.000000*%
G04 #@! TD*
G04 #@! TA.AperFunction,ComponentPad*
%ADD21R,1.700000X1.700000*%
G04 #@! TD*
G04 #@! TA.AperFunction,ComponentPad*
%ADD22O,1.700000X1.700000*%
G04 #@! TD*
G04 #@! TA.AperFunction,SMDPad,CuDef*
%ADD23RoundRect,0.150000X-0.587500X-0.150000X0.587500X-0.150000X0.587500X0.150000X-0.587500X0.150000X0*%
G04 #@! TD*
G04 #@! TA.AperFunction,SMDPad,CuDef*
%ADD24RoundRect,0.150000X-0.512500X-0.150000X0.512500X-0.150000X0.512500X0.150000X-0.512500X0.150000X0*%
G04 #@! TD*
G04 #@! TA.AperFunction,SMDPad,CuDef*
%ADD25R,0.500000X0.500000*%
G04 #@! TD*
G04 #@! TA.AperFunction,SMDPad,CuDef*
%ADD26RoundRect,0.200000X-0.200000X-0.275000X0.200000X-0.275000X0.200000X0.275000X-0.200000X0.275000X0*%
G04 #@! TD*
G04 #@! TA.AperFunction,SMDPad,CuDef*
%ADD27RoundRect,0.150000X0.587500X0.150000X-0.587500X0.150000X-0.587500X-0.150000X0.587500X-0.150000X0*%
G04 #@! TD*
G04 #@! TA.AperFunction,ComponentPad*
%ADD28O,0.850000X1.700000*%
G04 #@! TD*
G04 #@! TA.AperFunction,SMDPad,CuDef*
%ADD29R,1.900000X1.900000*%
G04 #@! TD*
G04 #@! TA.AperFunction,SMDPad,CuDef*
%ADD30R,2.100000X1.600000*%
G04 #@! TD*
G04 #@! TA.AperFunction,SMDPad,CuDef*
%ADD31R,0.400000X1.350000*%
G04 #@! TD*
G04 #@! TA.AperFunction,ViaPad*
%ADD32C,0.600000*%
G04 #@! TD*
G04 #@! TA.AperFunction,Conductor*
%ADD33C,0.200000*%
G04 #@! TD*
G04 APERTURE END LIST*
D10*
X19782500Y-23202800D03*
D11*
X35022500Y-23202800D03*
D12*
X35102500Y-26202800D03*
D11*
X35102500Y-28742800D03*
D12*
X35102500Y-31282800D03*
X35102500Y-33822800D03*
D13*
X32202500Y-45602800D03*
X29702500Y-45602800D03*
D14*
X20502500Y-42377800D03*
X20502500Y-40802800D03*
X22302500Y-42377800D03*
X22302500Y-40802800D03*
D15*
X25202500Y-37427800D03*
X25202500Y-35777800D03*
D16*
X33721500Y-62732800D03*
X33721500Y-61462800D03*
X33721500Y-60192800D03*
X33721500Y-58922800D03*
X33721500Y-57652800D03*
X33721500Y-56382800D03*
X33721500Y-55112800D03*
X33721500Y-53842800D03*
X33721500Y-52572800D03*
X33721500Y-51302800D03*
D17*
X32072500Y-49083800D03*
D18*
X31435500Y-50794800D03*
D17*
X30802500Y-49083800D03*
D18*
X30165500Y-50794800D03*
D17*
X29532500Y-49083800D03*
D18*
X28895500Y-50794800D03*
D17*
X28262500Y-49083800D03*
D18*
X27625500Y-50794800D03*
D17*
X26992500Y-49083800D03*
D18*
X26355500Y-50794800D03*
D17*
X25722500Y-49083800D03*
D18*
X25085500Y-50794800D03*
D17*
X24452500Y-49083800D03*
D18*
X23815500Y-50794800D03*
D17*
X23182500Y-49083800D03*
D16*
X21483500Y-51302800D03*
X21483500Y-52572800D03*
D19*
X23561500Y-53334800D03*
D16*
X21483500Y-53842800D03*
D19*
X23561500Y-54604800D03*
D16*
X21483500Y-55112800D03*
D19*
X23561500Y-55874800D03*
D16*
X21483500Y-56382800D03*
D19*
X23561500Y-57144800D03*
D16*
X21483500Y-57652800D03*
D19*
X23561500Y-58414800D03*
D16*
X21483500Y-58922800D03*
D19*
X23561500Y-59684800D03*
D16*
X21483500Y-60192800D03*
D19*
X23561500Y-60954800D03*
D16*
X21483500Y-61462800D03*
D19*
X23561500Y-62224800D03*
D16*
X21483500Y-62732800D03*
D20*
X26932500Y-29402800D03*
X20632500Y-29402800D03*
X20632500Y-33202800D03*
X26932500Y-33202800D03*
D15*
X32902500Y-42352800D03*
X32902500Y-40702800D03*
D21*
X39022500Y-26222800D03*
D22*
X39022500Y-28762800D03*
X39022500Y-31302800D03*
X39022500Y-33842800D03*
X39022500Y-36382800D03*
X39022500Y-38922800D03*
X39022500Y-41462800D03*
X39022500Y-44002800D03*
X39022500Y-46542800D03*
X39022500Y-49082800D03*
X39022500Y-51622800D03*
X39022500Y-54162800D03*
X39022500Y-56702800D03*
X39022500Y-59242800D03*
X39022500Y-61782800D03*
D23*
X32065000Y-36052800D03*
X32065000Y-37952800D03*
X33940000Y-37002800D03*
D24*
X28665000Y-40552800D03*
X28665000Y-41502800D03*
X28665000Y-42452800D03*
X30940000Y-42452800D03*
X30940000Y-40552800D03*
D21*
X16162500Y-26222800D03*
D22*
X16162500Y-28762800D03*
X16162500Y-31302800D03*
X16162500Y-33842800D03*
X16162500Y-36382800D03*
X16162500Y-38922800D03*
X16162500Y-41462800D03*
X16162500Y-44002800D03*
X16162500Y-46542800D03*
X16162500Y-49082800D03*
X16162500Y-51622800D03*
X16162500Y-54162800D03*
X16162500Y-56702800D03*
X16162500Y-59242800D03*
X16162500Y-61782800D03*
D15*
X24452500Y-46427800D03*
X24452500Y-44777800D03*
X26952500Y-46427800D03*
X26952500Y-44777800D03*
D25*
X27762500Y-36382800D03*
X29962500Y-36382800D03*
D15*
X31902500Y-32827800D03*
X31902500Y-31177800D03*
D24*
X24227500Y-40552800D03*
X24227500Y-41502800D03*
X24227500Y-42452800D03*
X26502500Y-42452800D03*
X26502500Y-40552800D03*
D14*
X34702500Y-42290300D03*
X34702500Y-40715300D03*
D26*
X20417500Y-44002800D03*
X22067500Y-44002800D03*
X20417500Y-46542800D03*
X22067500Y-46542800D03*
D27*
X22180000Y-38102800D03*
X22180000Y-36202800D03*
X20305000Y-37152800D03*
D15*
X29602500Y-32852800D03*
X29602500Y-31202800D03*
D28*
X24377500Y-23002800D03*
X30027500Y-23002800D03*
D29*
X26002500Y-23002800D03*
X28402500Y-23002800D03*
D30*
X24102500Y-25552800D03*
X30302500Y-25552800D03*
D31*
X25902500Y-25677800D03*
X26552500Y-25677800D03*
X27202500Y-25677800D03*
X27852500Y-25677800D03*
X28502500Y-25677800D03*
D32*
X25102533Y-52702775D03*
X23856657Y-50003498D03*
X23802533Y-47702775D03*
X25102533Y-43302775D03*
X23502533Y-22402775D03*
X20802533Y-24402775D03*
X22302533Y-22902775D03*
X40302533Y-30002775D03*
X27426013Y-41297530D03*
X27202533Y-43502775D03*
X22883300Y-52390015D03*
X30033700Y-47842600D03*
X28025200Y-30918600D03*
X29991500Y-56250000D03*
X20790600Y-39048800D03*
X28575300Y-33384700D03*
X30091000Y-37147800D03*
X20788900Y-37965500D03*
X26326444Y-41526686D03*
X29602500Y-30272800D03*
X21922900Y-44996400D03*
X25448600Y-44535000D03*
X21782800Y-34119500D03*
X32692900Y-57424500D03*
X24236400Y-36285000D03*
X31169200Y-31911100D03*
X27682600Y-39871000D03*
X25581300Y-33403700D03*
D33*
X22883300Y-52390015D02*
X22761200Y-52512115D01*
X22761200Y-52512115D02*
X22761200Y-55874800D01*
X22761200Y-55874800D02*
X23561500Y-55874800D01*
X22767525Y-43302775D02*
X25102533Y-43302775D01*
X23856657Y-50003498D02*
X23856657Y-50753643D01*
X23856657Y-50753643D02*
X23815500Y-50794800D01*
X22067500Y-44002800D02*
X22767525Y-43302775D01*
X26102533Y-43351050D02*
X25540480Y-42788997D01*
X25228700Y-47507300D02*
X25228700Y-46003700D01*
X25628220Y-41377088D02*
X26452508Y-40552800D01*
X26102533Y-43402775D02*
X26102533Y-43351050D01*
X25540480Y-42116603D02*
X25628220Y-42028863D01*
X25569819Y-43935489D02*
X26102533Y-43402775D01*
X26452508Y-40552800D02*
X26502500Y-40552800D01*
X24113384Y-43935489D02*
X25569819Y-43935489D01*
X23667100Y-45238800D02*
X23667100Y-44381773D01*
X25540480Y-42788997D02*
X25540480Y-42116603D01*
X24031100Y-45602800D02*
X23667100Y-45238800D01*
X23667100Y-44381773D02*
X24113384Y-43935489D01*
X24827800Y-45602800D02*
X24031100Y-45602800D01*
X25628220Y-42028863D02*
X25628220Y-41377088D01*
X25228700Y-46003700D02*
X24827800Y-45602800D01*
X23502533Y-22402775D02*
X23777475Y-22402775D01*
X23777475Y-22402775D02*
X24377500Y-23002800D01*
X22302533Y-22902775D02*
X20802533Y-24402775D01*
X26952500Y-44777800D02*
X26952500Y-43752808D01*
X26952500Y-43752808D02*
X27202533Y-43502775D01*
X27426013Y-41297530D02*
X28459730Y-41297530D01*
X28459730Y-41297530D02*
X28665000Y-41502800D01*
X26326444Y-41526686D02*
X26653038Y-41853280D01*
X26653038Y-41853280D02*
X27201197Y-41853280D01*
X27201197Y-41853280D02*
X27800717Y-42452800D01*
X27800717Y-42452800D02*
X28665000Y-42452800D01*
X30940000Y-40552800D02*
X30940000Y-41715813D01*
X30940000Y-41715813D02*
X30802533Y-41853280D01*
X30802533Y-41853280D02*
X30241303Y-41853280D01*
X30241303Y-41853280D02*
X29977980Y-42116603D01*
X28380280Y-44505714D02*
X28380280Y-45000020D01*
X29977980Y-42116603D02*
X29977980Y-42788997D01*
X29977980Y-42788997D02*
X30002533Y-42813550D01*
X30002533Y-42813550D02*
X30002533Y-43662380D01*
X30002533Y-43662380D02*
X29223613Y-43662381D01*
X29223613Y-43662381D02*
X28380280Y-44505714D01*
X28380280Y-45000020D02*
X26952500Y-46427800D01*
X37471800Y-37127400D02*
X35102500Y-34758100D01*
X37471800Y-44094100D02*
X37471800Y-37127400D01*
X38650500Y-45272800D02*
X37471800Y-44094100D01*
X39429000Y-45272800D02*
X38650500Y-45272800D01*
X40181000Y-46024800D02*
X39429000Y-45272800D01*
X40181000Y-52105700D02*
X40181000Y-46024800D01*
X39393900Y-52892800D02*
X40181000Y-52105700D01*
X38392300Y-52892800D02*
X39393900Y-52892800D01*
X36797600Y-54487500D02*
X38392300Y-52892800D01*
X30062200Y-54487500D02*
X36797600Y-54487500D01*
X24239500Y-60310200D02*
X30062200Y-54487500D01*
X22401200Y-60310200D02*
X24239500Y-60310200D01*
X22283800Y-60192800D02*
X22401200Y-60310200D01*
X21483500Y-60192800D02*
X22283800Y-60192800D01*
X35102500Y-33822800D02*
X35102500Y-34758100D01*
X34123500Y-33197100D02*
X35102500Y-32218100D01*
X34123500Y-35321100D02*
X34123500Y-33197100D01*
X35945000Y-37142600D02*
X34123500Y-35321100D01*
X35945000Y-47543600D02*
X35945000Y-37142600D01*
X24448400Y-59040200D02*
X35945000Y-47543600D01*
X22401200Y-59040200D02*
X24448400Y-59040200D01*
X22283800Y-58922800D02*
X22401200Y-59040200D01*
X21483500Y-58922800D02*
X22283800Y-58922800D01*
X35102500Y-31282800D02*
X35102500Y-32218100D01*
X20683200Y-62613200D02*
X20683200Y-62732800D01*
X17312800Y-59242800D02*
X20683200Y-62613200D01*
X16162500Y-59242800D02*
X17312800Y-59242800D01*
X21483500Y-62732800D02*
X20683200Y-62732800D01*
X16162500Y-54162800D02*
X16162500Y-55313100D01*
X21483500Y-61462800D02*
X20683200Y-61462800D01*
X20683200Y-59546100D02*
X20683200Y-61462800D01*
X16450200Y-55313100D02*
X20683200Y-59546100D01*
X16162500Y-55313100D02*
X16450200Y-55313100D01*
X22624600Y-58278200D02*
X22761200Y-58414800D01*
X20728800Y-58278200D02*
X22624600Y-58278200D01*
X17312800Y-54862200D02*
X20728800Y-58278200D01*
X17312800Y-48555700D02*
X17312800Y-54862200D01*
X16450200Y-47693100D02*
X17312800Y-48555700D01*
X16162500Y-47693100D02*
X16450200Y-47693100D01*
X16162500Y-46542800D02*
X16162500Y-47693100D01*
X23561500Y-58414800D02*
X22761200Y-58414800D01*
X16162500Y-44002800D02*
X16162500Y-45153100D01*
X21483500Y-57652800D02*
X20683200Y-57652800D01*
X17713100Y-54682700D02*
X20683200Y-57652800D01*
X17713100Y-46440200D02*
X17713100Y-54682700D01*
X16426000Y-45153100D02*
X17713100Y-46440200D01*
X16162500Y-45153100D02*
X16426000Y-45153100D01*
X16162500Y-38922800D02*
X16162500Y-40073100D01*
X21483500Y-56382800D02*
X20683200Y-56382800D01*
X18114300Y-53813900D02*
X20683200Y-56382800D01*
X18114300Y-45809000D02*
X18114300Y-53813900D01*
X17665300Y-45360000D02*
X18114300Y-45809000D01*
X17665300Y-41328100D02*
X17665300Y-45360000D01*
X16410300Y-40073100D02*
X17665300Y-41328100D01*
X16162500Y-40073100D02*
X16410300Y-40073100D01*
X36282200Y-60192800D02*
X33721500Y-60192800D01*
X37872200Y-61782800D02*
X36282200Y-60192800D01*
X39022500Y-61782800D02*
X37872200Y-61782800D01*
X34841800Y-59242800D02*
X34521800Y-58922800D01*
X39022500Y-59242800D02*
X34841800Y-59242800D01*
X33721500Y-58922800D02*
X34521800Y-58922800D01*
X34841800Y-56702800D02*
X34521800Y-56382800D01*
X39022500Y-56702800D02*
X34841800Y-56702800D01*
X33721500Y-56382800D02*
X34521800Y-56382800D01*
X36922200Y-55112800D02*
X33721500Y-55112800D01*
X37872200Y-54162800D02*
X36922200Y-55112800D01*
X39022500Y-54162800D02*
X37872200Y-54162800D01*
X35652200Y-53842800D02*
X33721500Y-53842800D01*
X37872200Y-51622800D02*
X35652200Y-53842800D01*
X39022500Y-51622800D02*
X37872200Y-51622800D01*
X37872200Y-49222400D02*
X34521800Y-52572800D01*
X37872200Y-49082800D02*
X37872200Y-49222400D01*
X33721500Y-52572800D02*
X34521800Y-52572800D01*
X39022500Y-49082800D02*
X37872200Y-49082800D01*
X37872200Y-47952400D02*
X34521800Y-51302800D01*
X37872200Y-46542800D02*
X37872200Y-47952400D01*
X39022500Y-46542800D02*
X37872200Y-46542800D01*
X33721500Y-51302800D02*
X34521800Y-51302800D01*
X29592800Y-48283500D02*
X29532500Y-48283500D01*
X30033700Y-47842600D02*
X29592800Y-48283500D01*
X29532500Y-49083800D02*
X29532500Y-48283500D01*
X21483500Y-51302800D02*
X20683200Y-51302800D01*
X26932500Y-29402800D02*
X20632500Y-29402800D01*
X20632500Y-29402800D02*
X19482200Y-29402800D01*
X26932500Y-29402800D02*
X28082800Y-29402800D01*
X19315200Y-49934800D02*
X20683200Y-51302800D01*
X19315200Y-45311600D02*
X19315200Y-49934800D01*
X18866200Y-44862600D02*
X19315200Y-45311600D01*
X18866200Y-30018800D02*
X18866200Y-44862600D01*
X19482200Y-29402800D02*
X18866200Y-30018800D01*
X28082800Y-30861000D02*
X28025200Y-30918600D01*
X28082800Y-29402800D02*
X28082800Y-30861000D01*
X27202500Y-25677800D02*
X27202500Y-26653100D01*
X21483500Y-55112800D02*
X20683200Y-55112800D01*
X18514600Y-52944200D02*
X20683200Y-55112800D01*
X18514600Y-45643200D02*
X18514600Y-52944200D01*
X18065600Y-45194200D02*
X18514600Y-45643200D01*
X18065600Y-29617000D02*
X18065600Y-45194200D01*
X21029500Y-26653100D02*
X18065600Y-29617000D01*
X27202500Y-26653100D02*
X21029500Y-26653100D01*
X21483500Y-53842800D02*
X20683200Y-53842800D01*
X18914900Y-52074500D02*
X20683200Y-53842800D01*
X18914900Y-45477400D02*
X18914900Y-52074500D01*
X18465900Y-45028400D02*
X18914900Y-45477400D01*
X18465900Y-29782800D02*
X18465900Y-45028400D01*
X20482500Y-27766200D02*
X18465900Y-29782800D01*
X26769300Y-27766200D02*
X20482500Y-27766200D01*
X27852500Y-26683000D02*
X26769300Y-27766200D01*
X27852500Y-25677800D02*
X27852500Y-26683000D01*
X30502800Y-46713800D02*
X30502800Y-45602800D01*
X32072500Y-48283500D02*
X30502800Y-46713800D01*
X29702500Y-45602800D02*
X30502800Y-45602800D01*
X32072500Y-49083800D02*
X32072500Y-48283500D01*
X32742500Y-47343100D02*
X32202500Y-46803100D01*
X32742500Y-49721100D02*
X32742500Y-47343100D01*
X32579500Y-49884100D02*
X32742500Y-49721100D01*
X30802500Y-49884100D02*
X32579500Y-49884100D01*
X30802500Y-49083800D02*
X30802500Y-49884100D01*
X32202500Y-45602800D02*
X32202500Y-46803100D01*
X29991600Y-56250000D02*
X29991500Y-56250000D01*
X29991600Y-58533200D02*
X29991600Y-56250000D01*
X32921200Y-61462800D02*
X29991600Y-58533200D01*
X20502500Y-39336900D02*
X20502500Y-40802800D01*
X20790600Y-39048800D02*
X20502500Y-39336900D01*
X33721500Y-61462800D02*
X32921200Y-61462800D01*
X37872200Y-32692500D02*
X37872200Y-33842800D01*
X35482000Y-30302300D02*
X37872200Y-32692500D01*
X34685600Y-30302300D02*
X35482000Y-30302300D01*
X33723100Y-31264800D02*
X34685600Y-30302300D01*
X33723100Y-36785900D02*
X33723100Y-31264800D01*
X33940000Y-37002800D02*
X33723100Y-36785900D01*
X39022500Y-33842800D02*
X37872200Y-33842800D01*
X24452500Y-49083800D02*
X24452500Y-48283500D01*
X26992500Y-49083800D02*
X26992500Y-48283500D01*
X35102500Y-26202800D02*
X35102500Y-27138100D01*
X26216300Y-47507300D02*
X26992500Y-48283500D01*
X25228700Y-47507300D02*
X26216300Y-47507300D01*
X24452500Y-48283500D02*
X25228700Y-47507300D01*
X28349000Y-38355700D02*
X28349000Y-35993000D01*
X26502500Y-40202200D02*
X28349000Y-38355700D01*
X26502500Y-40552800D02*
X26502500Y-40202200D01*
X22302500Y-39430500D02*
X22302500Y-40802800D01*
X23227500Y-38505500D02*
X22302500Y-39430500D01*
X23227500Y-37750300D02*
X23227500Y-38505500D01*
X22773500Y-37296300D02*
X23227500Y-37750300D01*
X21836000Y-37296300D02*
X22773500Y-37296300D01*
X21141400Y-36601700D02*
X21836000Y-37296300D01*
X21141400Y-35859800D02*
X21141400Y-36601700D01*
X21497500Y-35503700D02*
X21141400Y-35859800D01*
X24042900Y-35503700D02*
X21497500Y-35503700D01*
X24476500Y-35070100D02*
X24042900Y-35503700D01*
X27426100Y-35070100D02*
X24476500Y-35070100D01*
X28349000Y-35993000D02*
X27426100Y-35070100D01*
X28545900Y-35796100D02*
X28349000Y-35993000D01*
X30553300Y-35796100D02*
X28545900Y-35796100D01*
X30553300Y-36441100D02*
X30553300Y-35796100D01*
X32065000Y-37952800D02*
X30553300Y-36441100D01*
X34751800Y-27138100D02*
X35102500Y-27138100D01*
X30553300Y-31336600D02*
X34751800Y-27138100D01*
X30553300Y-35796100D02*
X30553300Y-31336600D01*
X25228700Y-40980800D02*
X24800700Y-40552800D01*
X25228700Y-41804000D02*
X25228700Y-40980800D01*
X24579900Y-42452800D02*
X25228700Y-41804000D01*
X24227500Y-42452800D02*
X24579900Y-42452800D01*
X24800700Y-40552800D02*
X24227500Y-40552800D01*
X27762500Y-36382800D02*
X27762500Y-36933100D01*
X25697100Y-36685400D02*
X26664300Y-37652500D01*
X24761000Y-36685400D02*
X25697100Y-36685400D01*
X24550500Y-36895900D02*
X24761000Y-36685400D01*
X22873100Y-36895900D02*
X24550500Y-36895900D01*
X22180000Y-36202800D02*
X22873100Y-36895900D01*
X24800700Y-39516100D02*
X26664300Y-37652500D01*
X24800700Y-40552800D02*
X24800700Y-39516100D01*
X27383700Y-36933100D02*
X27762500Y-36933100D01*
X26664300Y-37652500D02*
X27383700Y-36933100D01*
X23264100Y-39366200D02*
X25202500Y-37427800D01*
X23264100Y-41416200D02*
X23264100Y-39366200D01*
X22302500Y-42377800D02*
X23264100Y-41416200D01*
X21483500Y-52572800D02*
X22283800Y-52572800D01*
X21313200Y-49394900D02*
X21313200Y-47319000D01*
X22283800Y-50365500D02*
X21313200Y-49394900D01*
X22283800Y-52572800D02*
X22283800Y-50365500D01*
X22180000Y-38508400D02*
X22180000Y-38102800D01*
X21313200Y-39375200D02*
X22180000Y-38508400D01*
X21313200Y-47319000D02*
X21313200Y-39375200D01*
X28651300Y-32643800D02*
X28860300Y-32852800D01*
X28651300Y-26801900D02*
X28651300Y-32643800D01*
X28502500Y-26653100D02*
X28651300Y-26801900D01*
X29602500Y-32852800D02*
X28860300Y-32852800D01*
X28502500Y-25677800D02*
X28502500Y-26653100D01*
X28860300Y-33094500D02*
X28572700Y-33382100D01*
X28860300Y-32852800D02*
X28860300Y-33094500D01*
X27776400Y-34178400D02*
X28572700Y-33382100D01*
X24601800Y-34178400D02*
X27776400Y-34178400D01*
X24060300Y-34719900D02*
X24601800Y-34178400D01*
X21359000Y-34719900D02*
X24060300Y-34719900D01*
X19266500Y-36812400D02*
X21359000Y-34719900D01*
X19266500Y-44696800D02*
X19266500Y-36812400D01*
X19715500Y-45145800D02*
X19266500Y-44696800D01*
X19715500Y-47031500D02*
X19715500Y-45145800D01*
X20003000Y-47319000D02*
X19715500Y-47031500D01*
X21313200Y-47319000D02*
X20003000Y-47319000D01*
X28572700Y-33382100D02*
X28575300Y-33384700D01*
X29962500Y-37019300D02*
X30091000Y-37147800D01*
X29962500Y-36382800D02*
X29962500Y-37019300D01*
X31865000Y-41527800D02*
X30940000Y-42452800D01*
X33288800Y-41527800D02*
X31865000Y-41527800D01*
X34128400Y-40688200D02*
X33288800Y-41527800D01*
X34155400Y-40715300D02*
X34128400Y-40688200D01*
X34702500Y-40715300D02*
X34155400Y-40715300D01*
X30091000Y-37376800D02*
X30091000Y-37147800D01*
X31513400Y-38799200D02*
X30091000Y-37376800D01*
X32239300Y-38799200D02*
X31513400Y-38799200D01*
X34128400Y-40688200D02*
X32239300Y-38799200D01*
X20502500Y-43917800D02*
X20502500Y-42377800D01*
X20417500Y-44002800D02*
X20502500Y-43917800D01*
X20417500Y-45281700D02*
X20417500Y-46542800D01*
X19714600Y-44578800D02*
X20417500Y-45281700D01*
X19714600Y-38201000D02*
X19714600Y-44578800D01*
X20305000Y-37610600D02*
X19714600Y-38201000D01*
X20305000Y-37152800D02*
X20305000Y-37610600D01*
X20434000Y-37610600D02*
X20788900Y-37965500D01*
X20305000Y-37610600D02*
X20434000Y-37610600D01*
X27625500Y-50794800D02*
X27625500Y-51595100D01*
X23311400Y-51595100D02*
X27625500Y-51595100D01*
X23190100Y-51473800D02*
X23311400Y-51595100D01*
X23190100Y-50620200D02*
X23190100Y-51473800D01*
X22525900Y-49956000D02*
X23190100Y-50620200D01*
X22525900Y-46542800D02*
X22525900Y-49956000D01*
X24337500Y-46542800D02*
X22525900Y-46542800D01*
X24452500Y-46427800D02*
X24337500Y-46542800D01*
X22525900Y-46542800D02*
X22067500Y-46542800D01*
X32127600Y-39927900D02*
X32902500Y-40702800D01*
X29289900Y-39927900D02*
X32127600Y-39927900D01*
X28665000Y-40552800D02*
X29289900Y-39927900D01*
X32965000Y-42290300D02*
X32902500Y-42352800D01*
X34702500Y-42290300D02*
X32965000Y-42290300D01*
X28262500Y-49083800D02*
X28262500Y-48283500D01*
X32065000Y-32990300D02*
X32065000Y-36052800D01*
X31902500Y-32827800D02*
X32065000Y-32990300D01*
X28779800Y-47766200D02*
X28262500Y-48283500D01*
X28779800Y-44671200D02*
X28779800Y-47766200D01*
X29389100Y-44061900D02*
X28779800Y-44671200D01*
X34198800Y-44061900D02*
X29389100Y-44061900D01*
X35521600Y-42739100D02*
X34198800Y-44061900D01*
X35521600Y-40021800D02*
X35521600Y-42739100D01*
X32065000Y-36565200D02*
X35521600Y-40021800D01*
X32065000Y-36052800D02*
X32065000Y-36565200D01*
X29602500Y-30272800D02*
X29602500Y-31202800D01*
X20632500Y-33202800D02*
X21782800Y-33202800D01*
X21782800Y-33202800D02*
X21782800Y-34119500D01*
X33721500Y-57652800D02*
X32921200Y-57652800D01*
X32692900Y-57424500D02*
X32921200Y-57652800D01*
X21922900Y-44147400D02*
X22067500Y-44002800D01*
X21922900Y-44996400D02*
X21922900Y-44147400D01*
X23810400Y-41502800D02*
X24227500Y-41502800D01*
X23078700Y-42234500D02*
X23810400Y-41502800D01*
X23078700Y-42991600D02*
X23078700Y-42234500D01*
X22067500Y-44002800D02*
X23078700Y-42991600D01*
X24695300Y-36285000D02*
X25202500Y-35777800D01*
X24236400Y-36285000D02*
X24695300Y-36285000D01*
X30027500Y-23002800D02*
X30027500Y-23290300D01*
X28402500Y-23002800D02*
X29652800Y-23002800D01*
X24377500Y-23002800D02*
X24377500Y-23290300D01*
X26002500Y-23002800D02*
X24752200Y-23002800D01*
X25610500Y-25969800D02*
X25902500Y-25677800D01*
X24519500Y-25969800D02*
X25610500Y-25969800D01*
X24102500Y-25552800D02*
X24519500Y-25969800D01*
X24695300Y-44535000D02*
X25448600Y-44535000D01*
X24452500Y-44777800D02*
X24695300Y-44535000D01*
X26709700Y-44535000D02*
X26952500Y-44777800D01*
X25448600Y-44535000D02*
X26709700Y-44535000D01*
X31169200Y-31911100D02*
X31902500Y-31177800D01*
X24464700Y-23290300D02*
X24752200Y-23002800D01*
X24377500Y-23290300D02*
X24464700Y-23290300D01*
X24377500Y-24177500D02*
X24102500Y-24452500D01*
X24377500Y-23290300D02*
X24377500Y-24177500D01*
X24102500Y-25552800D02*
X24102500Y-24452500D01*
X28298800Y-41502800D02*
X28665000Y-41502800D01*
X27682600Y-40886600D02*
X28298800Y-41502800D01*
X27682600Y-39871000D02*
X27682600Y-40886600D01*
X29940300Y-23290300D02*
X29652800Y-23002800D01*
X30027500Y-23290300D02*
X29940300Y-23290300D01*
X30027500Y-24177500D02*
X30302500Y-24452500D01*
X30027500Y-23290300D02*
X30027500Y-24177500D01*
X30302500Y-25552800D02*
X30302500Y-24452500D01*
X25612100Y-49994500D02*
X25722500Y-49884100D01*
X23815500Y-49994500D02*
X25612100Y-49994500D01*
X23815500Y-50794800D02*
X23815500Y-49994500D01*
X25722500Y-49083800D02*
X25722500Y-49884100D01*
X26932500Y-33202800D02*
X25782200Y-33202800D01*
X25581300Y-33403700D02*
X25782200Y-33202800D01*
M02*
