G04 #@! TF.GenerationSoftware,KiCad,Pcbnew,6.0.1-79c1e3a40b~116~ubuntu21.04.1*
G04 #@! TF.CreationDate,2022-03-24T05:35:56+11:00*
G04 #@! TF.ProjectId,833iot,38333369-6f74-42e6-9b69-6361645f7063,rev?*
G04 #@! TF.SameCoordinates,Original*
G04 #@! TF.FileFunction,Legend,Bot*
G04 #@! TF.FilePolarity,Positive*
%FSLAX46Y46*%
G04 Gerber Fmt 4.6, Leading zero omitted, Abs format (unit mm)*
G04 Created by KiCad (PCBNEW 6.0.1-79c1e3a40b~116~ubuntu21.04.1) date 2022-03-24 05:35:56*
%MOMM*%
%LPD*%
G01*
G04 APERTURE LIST*
%ADD10C,0.080000*%
G04 APERTURE END LIST*
D10*
X20076309Y-24217085D02*
X20004880Y-24240895D01*
X19981071Y-24264704D01*
X19957261Y-24312323D01*
X19957261Y-24383752D01*
X19981071Y-24431371D01*
X20004880Y-24455180D01*
X20052500Y-24478990D01*
X20242976Y-24478990D01*
X20242976Y-23978990D01*
X20076309Y-23978990D01*
X20028690Y-24002800D01*
X20004880Y-24026609D01*
X19981071Y-24074228D01*
X19981071Y-24121847D01*
X20004880Y-24169466D01*
X20028690Y-24193276D01*
X20076309Y-24217085D01*
X20242976Y-24217085D01*
X19742976Y-24288514D02*
X19362023Y-24288514D01*
X19552500Y-24478990D02*
X19552500Y-24098038D01*
X35326309Y-24267085D02*
X35254880Y-24290895D01*
X35231071Y-24314704D01*
X35207261Y-24362323D01*
X35207261Y-24433752D01*
X35231071Y-24481371D01*
X35254880Y-24505180D01*
X35302500Y-24528990D01*
X35492976Y-24528990D01*
X35492976Y-24028990D01*
X35326309Y-24028990D01*
X35278690Y-24052800D01*
X35254880Y-24076609D01*
X35231071Y-24124228D01*
X35231071Y-24171847D01*
X35254880Y-24219466D01*
X35278690Y-24243276D01*
X35326309Y-24267085D01*
X35492976Y-24267085D01*
X34992976Y-24338514D02*
X34612023Y-24338514D01*
M02*
