M48
; DRILL file {KiCad 6.0.1-79c1e3a40b~116~ubuntu21.04.1} date Thu 24 Mar 2022 05:35:52
; FORMAT={-:-/ absolute / inch / decimal}
; #@! TF.CreationDate,2022-03-24T05:35:52+11:00
; #@! TF.GenerationSoftware,Kicad,Pcbnew,6.0.1-79c1e3a40b~116~ubuntu21.04.1
; #@! TF.FileFunction,Plated,1,2,PTH
FMAT,2
INCH
; #@! TA.AperFunction,Plated,PTH,ComponentDrill
T1C0.0118
; #@! TA.AperFunction,Plated,PTH,ViaDrill
T2C0.0157
; #@! TA.AperFunction,Plated,PTH,ComponentDrill
T3C0.0197
; #@! TA.AperFunction,Plated,PTH,ComponentDrill
T4C0.0335
; #@! TA.AperFunction,Plated,PTH,ComponentDrill
T5C0.0394
%
G90
G05
T1
X0.9276Y-2.0998
X0.9276Y-2.1498
X0.9276Y-2.1998
X0.9276Y-2.2498
X0.9276Y-2.2998
X0.9276Y-2.3498
X0.9276Y-2.3998
X0.9276Y-2.4498
X0.9376Y-1.9998
X0.9876Y-1.9998
X1.0376Y-1.9998
X1.0876Y-1.9998
X1.1376Y-1.9998
X1.1876Y-1.9998
X1.2376Y-1.9998
T2
X0.8185Y-1.4947
X0.8185Y-1.5374
X0.819Y-0.9607
X0.8576Y-1.3433
X0.8631Y-1.7715
X0.8781Y-0.9017
X0.9009Y-2.0626
X0.9253Y-0.882
X0.9371Y-1.8781
X0.9392Y-1.9686
X0.9542Y-1.4285
X0.9883Y-1.7048
X0.9883Y-2.0749
X1.0019Y-1.7533
X1.0071Y-1.3151
X1.0365Y-1.6349
X1.071Y-1.7127
X1.0798Y-1.6259
X1.0899Y-1.5697
X1.1034Y-1.2173
X1.125Y-1.3144
X1.1655Y-1.1918
X1.1808Y-2.2146
X1.1824Y-1.8836
X1.1847Y-1.4625
X1.2271Y-1.2563
X1.2871Y-2.2608
X1.5867Y-1.1812
T4
X0.7788Y-0.9135
X1.3788Y-0.9135
X1.382Y-1.0316
X1.382Y-1.1316
X1.382Y-1.2316
X1.382Y-1.3316
T5
X0.6363Y-1.0324
X0.6363Y-1.1324
X0.6363Y-1.2324
X0.6363Y-1.3324
X0.6363Y-1.4324
X0.6363Y-1.5324
X0.6363Y-1.6324
X0.6363Y-1.7324
X0.6363Y-1.8324
X0.6363Y-1.9324
X0.6363Y-2.0324
X0.6363Y-2.1324
X0.6363Y-2.2324
X0.6363Y-2.3324
X0.6363Y-2.4324
X1.5363Y-1.0324
X1.5363Y-1.1324
X1.5363Y-1.2324
X1.5363Y-1.3324
X1.5363Y-1.4324
X1.5363Y-1.5324
X1.5363Y-1.6324
X1.5363Y-1.7324
X1.5363Y-1.8324
X1.5363Y-1.9324
X1.5363Y-2.0324
X1.5363Y-2.1324
X1.5363Y-2.2324
X1.5363Y-2.3324
X1.5363Y-2.4324
T3
G00X0.9597Y-0.9194
M15
G01X0.9597Y-0.8918
M16
G05
G00X1.1822Y-0.9194
M15
G01X1.1822Y-0.8918
M16
G05
T0
M30
