G04 #@! TF.GenerationSoftware,KiCad,Pcbnew,6.0.1-79c1e3a40b~116~ubuntu21.04.1*
G04 #@! TF.CreationDate,2022-03-24T05:35:56+11:00*
G04 #@! TF.ProjectId,833iot,38333369-6f74-42e6-9b69-6361645f7063,rev?*
G04 #@! TF.SameCoordinates,Original*
G04 #@! TF.FileFunction,Soldermask,Top*
G04 #@! TF.FilePolarity,Negative*
%FSLAX46Y46*%
G04 Gerber Fmt 4.6, Leading zero omitted, Abs format (unit mm)*
G04 Created by KiCad (PCBNEW 6.0.1-79c1e3a40b~116~ubuntu21.04.1) date 2022-03-24 05:35:56*
%MOMM*%
%LPD*%
G01*
G04 APERTURE LIST*
G04 Aperture macros list*
%AMRoundRect*
0 Rectangle with rounded corners*
0 $1 Rounding radius*
0 $2 $3 $4 $5 $6 $7 $8 $9 X,Y pos of 4 corners*
0 Add a 4 corners polygon primitive as box body*
4,1,4,$2,$3,$4,$5,$6,$7,$8,$9,$2,$3,0*
0 Add four circle primitives for the rounded corners*
1,1,$1+$1,$2,$3*
1,1,$1+$1,$4,$5*
1,1,$1+$1,$6,$7*
1,1,$1+$1,$8,$9*
0 Add four rect primitives between the rounded corners*
20,1,$1+$1,$2,$3,$4,$5,0*
20,1,$1+$1,$4,$5,$6,$7,0*
20,1,$1+$1,$6,$7,$8,$9,0*
20,1,$1+$1,$8,$9,$2,$3,0*%
G04 Aperture macros list end*
%ADD10C,1.270000*%
%ADD11R,1.270000X1.270000*%
%ADD12O,1.270000X1.270000*%
%ADD13R,1.000000X1.800000*%
%ADD14RoundRect,0.218750X0.256250X-0.218750X0.256250X0.218750X-0.256250X0.218750X-0.256250X-0.218750X0*%
%ADD15RoundRect,0.200000X0.275000X-0.200000X0.275000X0.200000X-0.275000X0.200000X-0.275000X-0.200000X0*%
%ADD16R,1.000000X0.650000*%
%ADD17R,0.650000X1.000000*%
%ADD18R,1.700000X1.000000*%
%ADD19R,1.700000X1.700000*%
%ADD20O,1.700000X1.700000*%
%ADD21RoundRect,0.150000X-0.587500X-0.150000X0.587500X-0.150000X0.587500X0.150000X-0.587500X0.150000X0*%
%ADD22RoundRect,0.150000X-0.512500X-0.150000X0.512500X-0.150000X0.512500X0.150000X-0.512500X0.150000X0*%
%ADD23R,0.500000X0.500000*%
%ADD24RoundRect,0.200000X-0.200000X-0.275000X0.200000X-0.275000X0.200000X0.275000X-0.200000X0.275000X0*%
%ADD25RoundRect,0.150000X0.587500X0.150000X-0.587500X0.150000X-0.587500X-0.150000X0.587500X-0.150000X0*%
%ADD26O,0.850000X1.700000*%
%ADD27R,1.900000X1.900000*%
%ADD28R,2.100000X1.600000*%
%ADD29R,0.400000X1.350000*%
%ADD30C,0.600000*%
G04 APERTURE END LIST*
D10*
X19782500Y-23202800D03*
D11*
X35022500Y-23202800D03*
D12*
X35102500Y-26202800D03*
D11*
X35102500Y-28742800D03*
D12*
X35102500Y-31282800D03*
X35102500Y-33822800D03*
D13*
X32202500Y-45602800D03*
X29702500Y-45602800D03*
D14*
X20502500Y-42377800D03*
X20502500Y-40802800D03*
X22302500Y-42377800D03*
X22302500Y-40802800D03*
D15*
X25202500Y-37427800D03*
X25202500Y-35777800D03*
D16*
X33721500Y-62732800D03*
X33721500Y-61462800D03*
X33721500Y-60192800D03*
X33721500Y-58922800D03*
X33721500Y-57652800D03*
X33721500Y-56382800D03*
X33721500Y-55112800D03*
X33721500Y-53842800D03*
X33721500Y-52572800D03*
X33721500Y-51302800D03*
D17*
X32072500Y-49083800D03*
X31435500Y-50794800D03*
X30802500Y-49083800D03*
X30165500Y-50794800D03*
X29532500Y-49083800D03*
X28895500Y-50794800D03*
X28262500Y-49083800D03*
X27625500Y-50794800D03*
X26992500Y-49083800D03*
X26355500Y-50794800D03*
X25722500Y-49083800D03*
X25085500Y-50794800D03*
X24452500Y-49083800D03*
X23815500Y-50794800D03*
X23182500Y-49083800D03*
D16*
X21483500Y-51302800D03*
X21483500Y-52572800D03*
X23561500Y-53334800D03*
X21483500Y-53842800D03*
X23561500Y-54604800D03*
X21483500Y-55112800D03*
X23561500Y-55874800D03*
X21483500Y-56382800D03*
X23561500Y-57144800D03*
X21483500Y-57652800D03*
X23561500Y-58414800D03*
X21483500Y-58922800D03*
X23561500Y-59684800D03*
X21483500Y-60192800D03*
X23561500Y-60954800D03*
X21483500Y-61462800D03*
X23561500Y-62224800D03*
X21483500Y-62732800D03*
D18*
X26932500Y-29402800D03*
X20632500Y-29402800D03*
X20632500Y-33202800D03*
X26932500Y-33202800D03*
D15*
X32902500Y-42352800D03*
X32902500Y-40702800D03*
D19*
X39022500Y-26222800D03*
D20*
X39022500Y-28762800D03*
X39022500Y-31302800D03*
X39022500Y-33842800D03*
X39022500Y-36382800D03*
X39022500Y-38922800D03*
X39022500Y-41462800D03*
X39022500Y-44002800D03*
X39022500Y-46542800D03*
X39022500Y-49082800D03*
X39022500Y-51622800D03*
X39022500Y-54162800D03*
X39022500Y-56702800D03*
X39022500Y-59242800D03*
X39022500Y-61782800D03*
D21*
X32065000Y-36052800D03*
X32065000Y-37952800D03*
X33940000Y-37002800D03*
D22*
X28665000Y-40552800D03*
X28665000Y-41502800D03*
X28665000Y-42452800D03*
X30940000Y-42452800D03*
X30940000Y-40552800D03*
D19*
X16162500Y-26222800D03*
D20*
X16162500Y-28762800D03*
X16162500Y-31302800D03*
X16162500Y-33842800D03*
X16162500Y-36382800D03*
X16162500Y-38922800D03*
X16162500Y-41462800D03*
X16162500Y-44002800D03*
X16162500Y-46542800D03*
X16162500Y-49082800D03*
X16162500Y-51622800D03*
X16162500Y-54162800D03*
X16162500Y-56702800D03*
X16162500Y-59242800D03*
X16162500Y-61782800D03*
D15*
X24452500Y-46427800D03*
X24452500Y-44777800D03*
X26952500Y-46427800D03*
X26952500Y-44777800D03*
D23*
X27762500Y-36382800D03*
X29962500Y-36382800D03*
D15*
X31902500Y-32827800D03*
X31902500Y-31177800D03*
D22*
X24227500Y-40552800D03*
X24227500Y-41502800D03*
X24227500Y-42452800D03*
X26502500Y-42452800D03*
X26502500Y-40552800D03*
D14*
X34702500Y-42290300D03*
X34702500Y-40715300D03*
D24*
X20417500Y-44002800D03*
X22067500Y-44002800D03*
X20417500Y-46542800D03*
X22067500Y-46542800D03*
D25*
X22180000Y-38102800D03*
X22180000Y-36202800D03*
X20305000Y-37152800D03*
D15*
X29602500Y-32852800D03*
X29602500Y-31202800D03*
D26*
X24377500Y-23002800D03*
X30027500Y-23002800D03*
D27*
X26002500Y-23002800D03*
X28402500Y-23002800D03*
D28*
X24102500Y-25552800D03*
X30302500Y-25552800D03*
D29*
X25902500Y-25677800D03*
X26552500Y-25677800D03*
X27202500Y-25677800D03*
X27852500Y-25677800D03*
X28502500Y-25677800D03*
D30*
X29202500Y-25352800D03*
X25202500Y-25352800D03*
G36*
X28704419Y-25163608D02*
G01*
X28724095Y-25230620D01*
X28776438Y-25275975D01*
X28844991Y-25285832D01*
X28908080Y-25257020D01*
X28932044Y-25226397D01*
X28933899Y-25225650D01*
X28935474Y-25226882D01*
X28935351Y-25228630D01*
X28922501Y-25250888D01*
X28904531Y-25352800D01*
X28922501Y-25454712D01*
X28937064Y-25479935D01*
X28937064Y-25481935D01*
X28935332Y-25482935D01*
X28933878Y-25482308D01*
X28889460Y-25435279D01*
X28822233Y-25418631D01*
X28756677Y-25440972D01*
X28713545Y-25495287D01*
X28704463Y-25541811D01*
X28703150Y-25543320D01*
X28701187Y-25542936D01*
X28700500Y-25541428D01*
X28700500Y-25164171D01*
X28701500Y-25162439D01*
X28703500Y-25162439D01*
X28704419Y-25163608D01*
G37*
G36*
X25703813Y-25162660D02*
G01*
X25704500Y-25164168D01*
X25704500Y-25541433D01*
X25703500Y-25543165D01*
X25701500Y-25543165D01*
X25700581Y-25541996D01*
X25680904Y-25474981D01*
X25628561Y-25429626D01*
X25560008Y-25419769D01*
X25496919Y-25448581D01*
X25472954Y-25479205D01*
X25471099Y-25479952D01*
X25469524Y-25478720D01*
X25469647Y-25476972D01*
X25482499Y-25454712D01*
X25500469Y-25352800D01*
X25482499Y-25250888D01*
X25467938Y-25225667D01*
X25467938Y-25223667D01*
X25469670Y-25222667D01*
X25471124Y-25223294D01*
X25515538Y-25270320D01*
X25582765Y-25286968D01*
X25648321Y-25264628D01*
X25691454Y-25210313D01*
X25700537Y-25163785D01*
X25701850Y-25162276D01*
X25703813Y-25162660D01*
G37*
M02*
