G04 #@! TF.GenerationSoftware,KiCad,Pcbnew,6.0.1-79c1e3a40b~116~ubuntu21.04.1*
G04 #@! TF.CreationDate,2022-03-24T05:35:56+11:00*
G04 #@! TF.ProjectId,833iot,38333369-6f74-42e6-9b69-6361645f7063,rev?*
G04 #@! TF.SameCoordinates,Original*
G04 #@! TF.FileFunction,Soldermask,Bot*
G04 #@! TF.FilePolarity,Negative*
%FSLAX46Y46*%
G04 Gerber Fmt 4.6, Leading zero omitted, Abs format (unit mm)*
G04 Created by KiCad (PCBNEW 6.0.1-79c1e3a40b~116~ubuntu21.04.1) date 2022-03-24 05:35:56*
%MOMM*%
%LPD*%
G01*
G04 APERTURE LIST*
%ADD10C,1.270000*%
%ADD11R,1.270000X1.270000*%
%ADD12O,1.270000X1.270000*%
%ADD13R,0.650000X1.000000*%
%ADD14R,1.000000X0.650000*%
%ADD15R,1.700000X1.700000*%
%ADD16O,1.700000X1.700000*%
%ADD17O,0.850000X1.700000*%
%ADD18C,0.600000*%
G04 APERTURE END LIST*
D10*
X19782500Y-23202800D03*
D11*
X35022500Y-23202800D03*
D12*
X35102500Y-26202800D03*
D11*
X35102500Y-28742800D03*
D12*
X35102500Y-31282800D03*
X35102500Y-33822800D03*
D13*
X31435500Y-50794800D03*
X30165500Y-50794800D03*
X28895500Y-50794800D03*
X27625500Y-50794800D03*
X26355500Y-50794800D03*
X25085500Y-50794800D03*
X23815500Y-50794800D03*
D14*
X23561500Y-53334800D03*
X23561500Y-54604800D03*
X23561500Y-55874800D03*
X23561500Y-57144800D03*
X23561500Y-58414800D03*
X23561500Y-59684800D03*
X23561500Y-60954800D03*
X23561500Y-62224800D03*
D15*
X39022500Y-26222800D03*
D16*
X39022500Y-28762800D03*
X39022500Y-31302800D03*
X39022500Y-33842800D03*
X39022500Y-36382800D03*
X39022500Y-38922800D03*
X39022500Y-41462800D03*
X39022500Y-44002800D03*
X39022500Y-46542800D03*
X39022500Y-49082800D03*
X39022500Y-51622800D03*
X39022500Y-54162800D03*
X39022500Y-56702800D03*
X39022500Y-59242800D03*
X39022500Y-61782800D03*
D15*
X16162500Y-26222800D03*
D16*
X16162500Y-28762800D03*
X16162500Y-31302800D03*
X16162500Y-33842800D03*
X16162500Y-36382800D03*
X16162500Y-38922800D03*
X16162500Y-41462800D03*
X16162500Y-44002800D03*
X16162500Y-46542800D03*
X16162500Y-49082800D03*
X16162500Y-51622800D03*
X16162500Y-54162800D03*
X16162500Y-56702800D03*
X16162500Y-59242800D03*
X16162500Y-61782800D03*
D17*
X24377500Y-23002800D03*
X30027500Y-23002800D03*
D18*
X29202500Y-25352800D03*
X25202500Y-25352800D03*
M02*
